<?xml version="1.0" encoding="UTF-8"?><svg width="38.193mm" height="38.417mm" version="1.1" viewBox="0 0 38.192669 38.417019" xmlns="http://www.w3.org/2000/svg" xmlns:cc="http://creativecommons.org/ns#" xmlns:dc="http://purl.org/dc/elements/1.1/" xmlns:rdf="http://www.w3.org/1999/02/22-rdf-syntax-ns#" xmlns:xlink="http://www.w3.org/1999/xlink"><metadata><rdf:RDF><cc:Work rdf:about=""><dc:format>image/svg+xml</dc:format><dc:type rdf:resource="http://purl.org/dc/dcmitype/StillImage"/><dc:title/></cc:Work></rdf:RDF></metadata><g transform="translate(-70.488 -114.84)"><path d="m87.713 151.55c-5.3325-0.49186-9.8661-1.9872-13.725-4.5271-1.3819-0.90948-2.8584-2.1666-3.3099-2.818-0.18089-0.26103-0.18233-0.27139-0.13976-1.0064 0.0889-1.535 0.58402-4.3632 1.2012-6.8612 1.574-6.3708 3.8197-11.19 6.1319-13.159 1.1406-0.97134 2.6879-1.6767 4.2474-1.9363 0.67906-0.11302 2.0755-0.0936 2.8163 0.0391 1.2316 0.2207 2.7396 0.82243 3.8695 1.544 0.25466 0.16264 0.51172 0.35759 0.57124 0.43323 0.15741 0.20005 0.28574 0.1924 0.4977-0.0297 0.42358-0.44377 1.8864-1.2079 3.0717-1.6044 1.7945-0.60041 3.7508-0.6235 5.4644-0.0645 0.76647 0.25004 1.9524 0.85456 2.5294 1.2893 2.4933 1.8788 4.7795 6.5367 6.4416 13.124 0.74934 2.9699 1.3008 6.1545 1.3008 7.5122 0 0.61181-0.07 0.72521-0.99907 1.6176-1.5591 1.4976-4.0862 3.0759-6.6521 4.1545-2.6597 1.118-5.3902 1.8188-8.5545 2.1956-1.0416 0.12404-3.8481 0.18099-4.7625 0.0967z" fill="#dd7d10"/><path d="m73.923 118.1c1.5183-1.2457 3.1893-3.8282 5.7296-2.4789 2.6086 1.3855 2.4827 4.6119-0.39756 8.302-2.6454 3.1824-9.151 0.98626-8.5593-2.3386 0.3122-1.7543 1.7869-2.3028 3.2273-3.4845z" fill="#c98423"/><path d="m72.918 121.32c0.0078-2.0813 2.363-3.2917 3.2593-3.5877 1.4589-0.48191 3.0533 0.11595 3.3863 1.4953 0.24152 1.0006 0.32928 3.1896-0.84584 4.4544-1.2551 2.7575-5.8127 1.1202-5.7997-2.362z" fill="#905b15"/><path d="m73.64 122.24s0.0468 1.3834 1.343 1.9496c0.99219 0.4961 2.4347 0.77536 2.4347 0.77536 5.5185-0.50896 10.546-4.1559 9.9203-5.162-0.62579-1.0061-6.8869 0.67474-7.9102 1.0479-3.1331 1.1426-4.5286 1.5625-5.7878 1.3891z" fill="#f7c819"/><path d="m74.05 136.86-1.9182-3.175 1.2237-4.0018 2.5135 1.1576z" fill="#f7c819"/><path d="m105.62 136.41c0.5581-1.2444 1.1061-1.8458 1.5214-2.0505 0.3202-2.2718-1.2733-5.7712-3.1088-8.4005-2.2198-0.43219-1.5469 0.77609-1.8355 2.6624 0.57125 0.76179 2.6954 5.5893 3.423 7.7887z" fill="#f7c819"/><path d="m97.995 118.65c-0.27757-2.239 1.1524-2.9603 1.9017-3.5223 1.9452-1.147 3.4643 1.3875 4.8452 2.497 1.5114 1.2476 4.2296 2.5842 3.4561 4.9279-0.78476 2.378-2.4588 3.355-5.5893 2.6293-1.7982-0.65666-4.3361-4.3591-4.6137-6.5319z" fill="#c98423"/><path d="m100.94 122.41c-1.0418-1.2733-1.6371-3.7703-0.47956-4.5144 1.1576-0.74414 2.8836-0.45539 3.9853 0.33073 1.0609 0.75705 2.7781 3.5223 1.5379 5.0271-1.352 1.6404-5.0436-0.84336-5.0436-0.84336z" fill="#8d580b"/><g transform="translate(-14.429 .046772)"><ellipse cx="96.982" cy="134.86" rx="1.7072" ry="2.2451" fill="#44363b"/><circle cx="97.859" cy="134.24" r=".59635" fill="#fff"/></g><g><path d="m95.652 131.62c-0.28063 2.1983-0.98222 5.5191-0.37418 7.0626 2.7128 6.361 6.5714 4.7608 6.7352 7.811 0.3971 7.3949-12.356 6.7493-12.356 6.7493l0.24244-21.763z" fill="#fae8de"/><path d="m84.146 131.62c0.28063 2.1983 0.98221 5.5191 0.37418 7.0626-2.7128 6.361-6.5714 4.7608-6.7352 7.811-0.3971 7.3949 11.872 6.7493 11.872 6.7493l0.24244-21.763z" fill="#d7d1d1"/></g><path d="m92.871 117.7c-15.635 0.7316-16.723 11.001-22.383 9.5 3.9303 6.2668 12.116 5.7793 17.889 5.5645 3.7568-0.13985 16.189-1.6177 16.115-8.2617-0.0617-5.5464-6.2956-7.0519-11.621-6.8027z" color="#000000" color-rendering="auto" dominant-baseline="auto" fill="#ffd251" image-rendering="auto" shape-rendering="auto" solid-color="#000000" style="font-feature-settings:normal;font-variant-alternates:normal;font-variant-caps:normal;font-variant-ligatures:normal;font-variant-numeric:normal;font-variant-position:normal;isolation:auto;mix-blend-mode:normal;shape-padding:0;text-decoration-color:#000000;text-decoration-line:none;text-decoration-style:solid;text-indent:0;text-orientation:mixed;text-transform:none;white-space:normal"/><g><ellipse cx="96.982" cy="134.86" rx="1.7072" ry="2.2451" fill="#44363b"/><circle cx="97.859" cy="134.24" r=".59635" fill="#fff"/></g><path d="m93.133 149.74c-1.819 1.1906-3.2742-0.14883-3.2742-0.14883l-0.0496-6.2342s3.0262 0.36381 4.5806-0.16536" fill="none" stroke="#ef9d9e" stroke-linecap="round" stroke-linejoin="round" stroke-width="1.065"/><path d="m86.475 149.74c1.819 1.1906 3.2742-0.14883 3.2742-0.14883l0.0496-6.2342s-3.0262 0.36381-4.5806-0.16536" fill="none" stroke="#ef9d9e" stroke-linecap="round" stroke-linejoin="round" stroke-width="1.065"/></g></svg>
